<svg width="32" height="32" viewBox="0 0 32 32" fill="none" xmlns="http://www.w3.org/2000/svg">
<path d="M17.333 15.6666H25.333V13.6666H17.333V15.6666ZM25.6663 16V25.3333H27.6663V16H25.6663ZM25.333 25.6666H17.333V27.6666H25.333V25.6666ZM16.9997 25.3333V16H14.9997V25.3333H16.9997ZM6.66634 6.33331H10.6663V4.33331H6.66634V6.33331ZM10.9997 6.66665V25.3333H12.9997V6.66665H10.9997ZM10.6663 25.6666H6.66634V27.6666H10.6663V25.6666ZM6.33301 25.3333V6.66665H4.33301V25.3333H6.33301ZM6.66634 25.6666C6.48225 25.6666 6.33301 25.5174 6.33301 25.3333H4.33301C4.33301 26.622 5.37768 27.6666 6.66634 27.6666V25.6666ZM10.9997 25.3333C10.9997 25.5174 10.8504 25.6666 10.6663 25.6666V27.6666C11.955 27.6666 12.9997 26.622 12.9997 25.3333H10.9997ZM10.6663 6.33331C10.8504 6.33331 10.9997 6.48255 10.9997 6.66665H12.9997C12.9997 5.37798 11.955 4.33331 10.6663 4.33331V6.33331ZM6.66634 4.33331C5.37768 4.33331 4.33301 5.37798 4.33301 6.66665H6.33301C6.33301 6.48255 6.48225 6.33331 6.66634 6.33331V4.33331ZM17.333 6.33331H25.333V4.33331H17.333V6.33331ZM25.6663 6.66665V9.33331H27.6663V6.66665H25.6663ZM25.333 9.66665H17.333V11.6666H25.333V9.66665ZM16.9997 9.33331V6.66665H14.9997V9.33331H16.9997ZM17.333 9.66665C17.1489 9.66665 16.9997 9.51741 16.9997 9.33331H14.9997C14.9997 10.622 16.0443 11.6666 17.333 11.6666V9.66665ZM25.6663 9.33331C25.6663 9.51741 25.5171 9.66665 25.333 9.66665V11.6666C26.6217 11.6666 27.6663 10.622 27.6663 9.33331H25.6663ZM25.333 6.33331C25.5171 6.33331 25.6663 6.48255 25.6663 6.66665H27.6663C27.6663 5.37798 26.6217 4.33331 25.333 4.33331V6.33331ZM17.333 4.33331C16.0443 4.33331 14.9997 5.37798 14.9997 6.66665H16.9997C16.9997 6.48255 17.1489 6.33331 17.333 6.33331V4.33331ZM17.333 25.6666C17.1489 25.6666 16.9997 25.5174 16.9997 25.3333H14.9997C14.9997 26.622 16.0443 27.6666 17.333 27.6666V25.6666ZM25.6663 25.3333C25.6663 25.5174 25.5171 25.6666 25.333 25.6666V27.6666C26.6217 27.6666 27.6663 26.622 27.6663 25.3333H25.6663ZM25.333 15.6666C25.5171 15.6666 25.6663 15.8159 25.6663 16H27.6663C27.6663 14.7113 26.6217 13.6666 25.333 13.6666V15.6666ZM17.333 13.6666C16.0443 13.6666 14.9997 14.7113 14.9997 16H16.9997C16.9997 15.8159 17.1489 15.6666 17.333 15.6666V13.6666Z" fill="white"/>
</svg>
