<svg width="32" height="32" viewBox="0 0 32 32" fill="none" xmlns="http://www.w3.org/2000/svg">
<path d="M15.9997 5.33338H7.33301C6.22844 5.33338 5.33301 6.22881 5.33301 7.33338V24.6667C5.33301 25.7713 6.22844 26.6667 7.33301 26.6667H24.6663C25.7709 26.6667 26.6663 25.7713 26.6663 24.6667V16M24.552 11.219L25.9996 9.7713C27.041 8.7299 27.041 7.04147 25.9996 6.00008C24.9582 4.95868 23.2698 4.95868 22.2284 6.0001L20.7807 7.44774M24.552 11.219L16.5036 19.2675C16.1313 19.6397 15.6572 19.8935 15.141 19.9967L11.2186 20.7812L12.0031 16.8589C12.1064 16.3426 12.3601 15.8685 12.7324 15.4962L20.7807 7.44774M24.552 11.219L20.7807 7.44774" stroke="white" stroke-width="2" stroke-linecap="round" stroke-linejoin="round"/>
</svg>
