<svg width="32" height="32" viewBox="0 0 32 32" fill="none" xmlns="http://www.w3.org/2000/svg">
<path d="M3 25.3334C3 25.8856 3.44772 26.3334 4 26.3334C4.55228 26.3334 5 25.8856 5 25.3334H3ZM19 25.3334C19 25.8856 19.4477 26.3334 20 26.3334C20.5523 26.3334 21 25.8856 21 25.3334H19ZM20 13.6667C19.4477 13.6667 19 14.1144 19 14.6667C19 15.219 19.4477 15.6667 20 15.6667V13.6667ZM20 5.66669C19.4477 5.66669 19 6.1144 19 6.66669C19 7.21897 19.4477 7.66669 20 7.66669V5.66669ZM27 25.3334C27 25.8856 27.4477 26.3334 28 26.3334C28.5523 26.3334 29 25.8856 29 25.3334H27ZM22 17.6667C21.4477 17.6667 21 18.1144 21 18.6667C21 19.219 21.4477 19.6667 22 19.6667V17.6667ZM5 25.3334V24H3V25.3334H5ZM9.33333 19.6667H14.6667V17.6667H9.33333V19.6667ZM19 24V25.3334H21V24H19ZM15 10.6667C15 12.3235 13.6569 13.6667 12 13.6667V15.6667C14.7614 15.6667 17 13.4281 17 10.6667H15ZM12 13.6667C10.3431 13.6667 9 12.3235 9 10.6667H7C7 13.4281 9.23858 15.6667 12 15.6667V13.6667ZM9 10.6667C9 9.00983 10.3431 7.66669 12 7.66669V5.66669C9.23858 5.66669 7 7.90526 7 10.6667H9ZM12 7.66669C13.6569 7.66669 15 9.00983 15 10.6667H17C17 7.90526 14.7614 5.66669 12 5.66669V7.66669ZM23 10.6667C23 12.3235 21.6569 13.6667 20 13.6667V15.6667C22.7614 15.6667 25 13.4281 25 10.6667H23ZM20 7.66669C21.6569 7.66669 23 9.00983 23 10.6667H25C25 7.90526 22.7614 5.66669 20 5.66669V7.66669ZM27 24V25.3334H29V24H27ZM22 19.6667H22.6667V17.6667H22V19.6667ZM29 24C29 20.5022 26.1645 17.6667 22.6667 17.6667V19.6667C25.0599 19.6667 27 21.6068 27 24H29ZM14.6667 19.6667C17.0599 19.6667 19 21.6068 19 24H21C21 20.5022 18.1645 17.6667 14.6667 17.6667V19.6667ZM5 24C5 21.6068 6.9401 19.6667 9.33333 19.6667V17.6667C5.83553 17.6667 3 20.5022 3 24H5Z" fill="white"/>
</svg>
