<svg width="32" height="32" viewBox="0 0 32 32" fill="none" xmlns="http://www.w3.org/2000/svg">
<path d="M7.7153 18.0549L7.0644 17.2957L7.7153 18.0549ZM10.3337 10.3333C10.3337 8.12417 12.1245 6.33331 14.3337 6.33331V4.33331C11.02 4.33331 8.33366 7.0196 8.33366 10.3333H10.3337ZM10.3337 15.5605V10.3333H8.33366V15.5605H10.3337ZM7.66699 20.3333C7.66699 19.7258 7.93661 19.1824 8.36621 18.814L7.0644 17.2957C6.21055 18.0278 5.66699 19.1176 5.66699 20.3333H7.66699ZM7.66699 20.6666V20.3333H5.66699V20.6666H7.66699ZM9.33366 21.6666H8.66699V23.6666H9.33366V21.6666ZM22.667 21.6666H9.33366V23.6666H22.667V21.6666ZM23.3337 21.6666H22.667V23.6666H23.3337V21.6666ZM24.3337 20.3333V20.6666H26.3337V20.3333H24.3337ZM23.6344 18.814C24.064 19.1824 24.3337 19.7258 24.3337 20.3333H26.3337C26.3337 19.1176 25.7901 18.0278 24.9363 17.2957L23.6344 18.814ZM21.667 10.3333V15.5605H23.667V10.3333H21.667ZM17.667 6.33331C19.8761 6.33331 21.667 8.12417 21.667 10.3333H23.667C23.667 7.01961 20.9807 4.33331 17.667 4.33331V6.33331ZM14.3337 6.33331H17.667V4.33331H14.3337V6.33331ZM24.9363 17.2957C24.5553 16.9691 24.2244 16.6613 23.9878 16.3437C23.7558 16.0323 23.667 15.7809 23.667 15.5605H21.667C21.667 16.3597 22.0003 17.0236 22.384 17.5386C22.7631 18.0474 23.2414 18.477 23.6344 18.814L24.9363 17.2957ZM5.66699 20.6666C5.66699 22.3235 7.01014 23.6666 8.66699 23.6666V21.6666C8.11471 21.6666 7.66699 21.2189 7.66699 20.6666H5.66699ZM23.3337 23.6666C24.9905 23.6666 26.3337 22.3235 26.3337 20.6666H24.3337C24.3337 21.2189 23.8859 21.6666 23.3337 21.6666V23.6666ZM8.33366 15.5605C8.33366 15.7809 8.24481 16.0323 8.01281 16.3437C7.77621 16.6613 7.44531 16.9691 7.0644 17.2957L8.36621 18.814C8.75928 18.477 9.23756 18.0474 9.61664 17.5386C10.0003 17.0236 10.3337 16.3597 10.3337 15.5605H8.33366Z" fill="white"/>
<path d="M18.3965 26.5023C18.1746 26.9572 17.828 27.3395 17.397 27.6046C16.966 27.8698 16.4684 28.0068 15.9624 27.9998C15.4565 27.9927 14.9629 27.8418 14.5395 27.5647C14.1161 27.2876 13.7802 26.8958 13.5712 26.435" stroke="white" stroke-width="2" stroke-linecap="round" stroke-linejoin="round"/>
<path d="M16 4V5.33333" stroke="white" stroke-width="2" stroke-linecap="round" stroke-linejoin="round"/>
</svg>
