<svg width="32" height="32" viewBox="0 0 32 32" fill="none" xmlns="http://www.w3.org/2000/svg">
<path d="M18.6667 7.05317H17.6667C17.6667 7.49559 17.9574 7.88543 18.3814 8.01162L18.6667 7.05317ZM20.4403 7.78849L19.9638 8.6677C20.353 8.87856 20.8344 8.80855 21.1474 8.49559L20.4403 7.78849ZM21.8926 6.33618L22.5997 7.04328V7.04328L21.8926 6.33618ZM23.3068 6.33618L24.0139 5.62907L24.0139 5.62907L23.3068 6.33618ZM25.6638 8.6932L26.3709 7.98609V7.98609L25.6638 8.6932ZM25.6638 10.1074L26.3709 10.8145V10.8145L25.6638 10.1074ZM24.2115 11.5597L23.5044 10.8526C23.1914 11.1656 23.1214 11.647 23.3323 12.0361L24.2115 11.5597ZM24.9468 13.3333L23.9884 13.6186C24.1146 14.0426 24.5044 14.3333 24.9468 14.3333V13.3333ZM24.9468 18.6667V17.6667C24.5044 17.6667 24.1146 17.9574 23.9884 18.3814L24.9468 18.6667ZM24.2115 20.4403L23.3323 19.9639C23.1214 20.353 23.1914 20.8344 23.5044 21.1474L24.2115 20.4403ZM20.4403 24.2115L21.1474 23.5044C20.8344 23.1914 20.353 23.1214 19.9638 23.3323L20.4403 24.2115ZM18.6667 24.9468L18.3814 23.9884C17.9574 24.1146 17.6667 24.5044 17.6667 24.9468H18.6667ZM13.3334 24.9468H14.3334C14.3334 24.5044 14.0426 24.1146 13.6186 23.9884L13.3334 24.9468ZM11.5597 24.2115L12.0362 23.3323C11.647 23.1214 11.1656 23.1914 10.8526 23.5044L11.5597 24.2115ZM10.1075 25.6638L10.8146 26.3709L10.8146 26.3709L10.1075 25.6638ZM8.69324 25.6638L7.98613 26.3709L7.98613 26.3709L8.69324 25.6638ZM6.33621 23.3067L7.04332 22.5996L7.04332 22.5996L6.33621 23.3067ZM6.33621 21.8925L7.04332 22.5996H7.04332L6.33621 21.8925ZM7.78851 20.4402L8.49562 21.1473C8.80857 20.8344 8.87858 20.3529 8.66772 19.9638L7.78851 20.4402ZM7.05319 18.6667L8.01164 18.3814C7.88545 17.9574 7.49561 17.6667 7.05319 17.6667V18.6667ZM7.05319 13.3333V14.3333C7.49561 14.3333 7.88545 14.0426 8.01165 13.6186L7.05319 13.3333ZM7.78851 11.5598L8.66773 12.0362C8.87859 11.6471 8.80858 11.1656 8.49562 10.8527L7.78851 11.5598ZM6.33622 10.1075L5.62911 10.8146L5.62911 10.8146L6.33622 10.1075ZM10.1075 6.33623L9.40035 7.04334L9.40035 7.04334L10.1075 6.33623ZM11.5597 7.78852L10.8526 8.49562C11.1656 8.80858 11.647 8.87859 12.0362 8.66773L11.5597 7.78852ZM13.3334 7.05317L13.6186 8.01162C14.0426 7.88543 14.3334 7.49559 14.3334 7.05317H13.3334ZM14.3334 3C13.2288 3 12.3334 3.89543 12.3334 5H14.3334V5V3ZM17.6667 3H14.3334V5H17.6667V3ZM19.6667 5C19.6667 3.89543 18.7713 3 17.6667 3V5H17.6667H19.6667ZM19.6667 7.05317V5H17.6667V7.05317H19.6667ZM20.9167 6.90927C20.2974 6.5737 19.6397 6.29942 18.9519 6.09472L18.3814 8.01162C18.9351 8.17639 19.4647 8.39724 19.9638 8.6677L20.9167 6.90927ZM21.1855 5.62907L19.7331 7.08138L21.1474 8.49559L22.5997 7.04328L21.1855 5.62907ZM24.0139 5.62907C23.2328 4.84802 21.9665 4.84802 21.1855 5.62907L22.5997 7.04328L22.5997 7.04328L24.0139 5.62907ZM26.3709 7.98609L24.0139 5.62907L22.5997 7.04328L24.9567 9.4003L26.3709 7.98609ZM26.3709 10.8145C27.152 10.0335 27.152 8.76714 26.3709 7.98609L24.9567 9.4003V9.40031L26.3709 10.8145ZM24.9186 12.2668L26.3709 10.8145L24.9567 9.40031L23.5044 10.8526L24.9186 12.2668ZM25.9053 13.0481C25.7006 12.3603 25.4263 11.7026 25.0907 11.0833L23.3323 12.0361C23.6028 12.5353 23.8236 13.0649 23.9884 13.6186L25.9053 13.0481ZM24.9468 14.3333H27V12.3333H24.9468V14.3333ZM27 14.3333H29C29 13.2288 28.1046 12.3333 27 12.3333V14.3333ZM27 14.3333V17.6667H29V14.3333H27ZM27 17.6667V17.6667V19.6667C28.1046 19.6667 29 18.7712 29 17.6667H27ZM27 17.6667H24.9468V19.6667H27V17.6667ZM25.0907 20.9167C25.4263 20.2974 25.7006 19.6397 25.9053 18.9519L23.9884 18.3814C23.8236 18.9351 23.6028 19.4647 23.3323 19.9639L25.0907 20.9167ZM26.3709 21.1855L24.9186 19.7332L23.5044 21.1474L24.9567 22.5997L26.3709 21.1855ZM26.3709 24.0139C27.152 23.2329 27.152 21.9665 26.3709 21.1855L24.9567 22.5997L26.3709 24.0139ZM24.0139 26.3709L26.3709 24.0139L24.9567 22.5997L22.5997 24.9567L24.0139 26.3709ZM21.1855 26.3709C21.9665 27.152 23.2328 27.152 24.0139 26.3709L22.5997 24.9567H22.5997L21.1855 26.3709ZM19.7332 24.9186L21.1855 26.3709L22.5997 24.9567L21.1474 23.5044L19.7332 24.9186ZM18.9519 25.9053C19.6397 25.7006 20.2974 25.4263 20.9167 25.0907L19.9638 23.3323C19.4647 23.6028 18.9351 23.8236 18.3814 23.9884L18.9519 25.9053ZM19.6667 27V24.9468H17.6667V27H19.6667ZM17.6667 29C18.7713 29 19.6667 28.1046 19.6667 27H17.6667V29ZM14.3334 29H17.6667V27H14.3334V29ZM12.3334 27C12.3334 28.1046 13.2288 29 14.3334 29V27H14.3334H12.3334ZM12.3334 24.9468V27H14.3334V24.9468H12.3334ZM11.0833 25.0907C11.7026 25.4263 12.3603 25.7006 13.0481 25.9053L13.6186 23.9884C13.065 23.8236 12.5353 23.6027 12.0362 23.3323L11.0833 25.0907ZM10.8146 26.3709L12.2668 24.9186L10.8526 23.5044L9.40034 24.9567L10.8146 26.3709ZM7.98613 26.3709C8.76718 27.1519 10.0335 27.1519 10.8146 26.3709L9.40034 24.9567H9.40034L7.98613 26.3709ZM5.62911 24.0138L7.98613 26.3709L9.40034 24.9567L7.04332 22.5996L5.62911 24.0138ZM5.62911 21.1854C4.84806 21.9665 4.84806 23.2328 5.62911 24.0138L7.04332 22.5996L7.04332 22.5996L5.62911 21.1854ZM7.0814 19.7331L5.62911 21.1854L7.04332 22.5996L8.49562 21.1473L7.0814 19.7331ZM6.09474 18.9519C6.29944 19.6397 6.57372 20.2974 6.90929 20.9167L8.66772 19.9638C8.39726 19.4647 8.17641 18.935 8.01164 18.3814L6.09474 18.9519ZM7.05319 17.6667H5V19.6667H7.05319V17.6667ZM5 17.6667H5H3C3 18.7712 3.89543 19.6667 5 19.6667V17.6667ZM5 17.6667V14.3333H3V17.6667H5ZM5 14.3333V14.3333V12.3333C3.89543 12.3333 3 13.2288 3 14.3333H5ZM5 14.3333H7.05319V12.3333H5V14.3333ZM6.9093 11.0833C6.57372 11.7026 6.29944 12.3603 6.09474 13.0481L8.01165 13.6186C8.17641 13.065 8.39726 12.5353 8.66773 12.0362L6.9093 11.0833ZM5.62911 10.8146L7.08141 12.2669L8.49562 10.8527L7.04333 9.40036L5.62911 10.8146ZM5.62911 7.98615C4.84806 8.7672 4.84806 10.0335 5.62911 10.8146L7.04333 9.40036L7.04333 9.40036L5.62911 7.98615ZM7.98613 5.62913L5.62911 7.98615L7.04333 9.40036L9.40035 7.04334L7.98613 5.62913ZM10.8146 5.62913C10.0335 4.84808 8.76718 4.84808 7.98613 5.62913L9.40035 7.04334L9.40035 7.04334L10.8146 5.62913ZM12.2668 7.08141L10.8146 5.62913L9.40035 7.04334L10.8526 8.49562L12.2668 7.08141ZM13.0481 6.09472C12.3603 6.29942 11.7026 6.57371 11.0833 6.9093L12.0362 8.66773C12.5353 8.39725 13.065 8.17639 13.6186 8.01162L13.0481 6.09472ZM12.3334 5V7.05317H14.3334V5H12.3334Z" fill="white"/>
<circle cx="16" cy="16" r="4" stroke="white" stroke-width="2" stroke-linecap="round" stroke-linejoin="round"/>
</svg>
