<svg width="32" height="32" viewBox="0 0 32 32" fill="none" xmlns="http://www.w3.org/2000/svg">
<path d="M22.6262 26.0063L23.1791 26.8395L22.6262 26.0063ZM9.37382 26.0063L8.82093 26.8395L9.37382 26.0063ZM14.6667 22.3333H17.3333V20.3333H14.6667V22.3333ZM5 16C5 9.92487 9.92487 5 16 5V3C8.8203 3 3 8.8203 3 16H5ZM16 5C22.0751 5 27 9.92487 27 16H29C29 8.8203 23.1797 3 16 3V5ZM19 13.3333C19 14.9902 17.6569 16.3333 16 16.3333V18.3333C18.7614 18.3333 21 16.0948 21 13.3333H19ZM16 16.3333C14.3431 16.3333 13 14.9902 13 13.3333H11C11 16.0948 13.2386 18.3333 16 18.3333V16.3333ZM13 13.3333C13 11.6765 14.3431 10.3333 16 10.3333V8.33333C13.2386 8.33333 11 10.5719 11 13.3333H13ZM16 10.3333C17.6569 10.3333 19 11.6765 19 13.3333H21C21 10.5719 18.7614 8.33333 16 8.33333V10.3333ZM17.3333 22.3333C19.5441 22.3333 21.3696 23.9898 21.6337 26.1288L23.6186 25.8837C23.2322 22.7549 20.5663 20.3333 17.3333 20.3333V22.3333ZM27 16C27 19.8288 25.0446 23.2014 22.0733 25.173L23.1791 26.8395C26.6851 24.5131 29 20.5271 29 16H27ZM22.0733 25.173C20.3334 26.3275 18.2467 27 16 27V29C18.6521 29 21.1215 28.2048 23.1791 26.8395L22.0733 25.173ZM10.3663 26.1288C10.6304 23.9898 12.4559 22.3333 14.6667 22.3333V20.3333C11.4337 20.3333 8.76777 22.7549 8.38136 25.8837L10.3663 26.1288ZM16 27C13.7533 27 11.6666 26.3275 9.92671 25.173L8.82093 26.8395C10.8785 28.2048 13.3479 29 16 29V27ZM9.92671 25.173C6.9554 23.2014 5 19.8288 5 16H3C3 20.5271 5.31491 24.5131 8.82093 26.8395L9.92671 25.173Z" fill="white"/>
</svg>
